<?xml version="1.0" encoding="UTF-8"?>
<svg id="Layer_1" data-name="Layer 1" xmlns="http://www.w3.org/2000/svg" viewBox="0 0 1136.27 435.43">
  <path d="M257.55,104.04c3.35,2.89,7.29,5.15,11.8,6.77,4.51,1.62,9.2,2.43,14.06,2.43s9.26-.89,13.19-2.69c3.93-1.79,7.58-4.1,10.94-6.94,3.35-2.83,6.36-6.05,9.02-9.63,2.66-3.59,4.92-7.17,6.77-10.76,1.85-3.59,3.27-7.06,4.25-10.41.98-3.35,1.48-7.09,1.48-11.19s-1.74-8.13-5.21-12.06c-1.73-1.97-3.96-3.56-6.68-4.77-2.72-1.22-6.8-1.82-12.24-1.82s-12.38,1.27-20.83,3.82c-24.99,7.29-37.49,18.4-37.49,33.33,0,9.72,3.65,17.7,10.94,23.95Z"/>
  <path d="M1055.91,182.58c-1.04-1.79-3.24-2.69-6.6-2.69-9.14,0-18.74,4.16-28.81,12.5l-15.27,12.5c-25.34,19.78-43.16,29.68-53.46,29.68s-15.45-5.84-15.45-17.53c0-2.31.37-6.57,1.13-12.76.75-6.19,1.01-10.85.78-13.97-.69-4.86-4.16-10.3-10.41-16.31-2.66-2.55-5.38-4.71-8.16-6.51-2.78-1.79-5.5-3.04-8.16-3.73-2.66-.69-6.91.38-12.76,3.21-5.85,2.84-14.38,9.98-25.6,21.44l-15.79,16.32-16.31,15.97c-5.67,5.21-11.4,9.81-17.18,13.8-5.79,3.99-12.79,5.99-21,5.99-3.7,0-6.83-1.04-9.37-3.12-2.55-2.08-3.82-5.35-3.82-9.81s2.89-11.77,8.68-21.96c2.43-4.28,5.12-8.68,8.07-13.19,2.95-4.51,5.64-8.88,8.07-13.11,2.43-4.22,4.48-8.27,6.16-12.15,1.68-3.87,2.51-7.29,2.51-10.24s-.64-5.35-1.91-7.2c-3.24-4.74-8.68-7.11-16.32-7.11-17.35,0-33.79,4.86-49.29,14.58-7.18,5.55-13.66,12.03-19.44,19.44-8.81,11.41-15.48,23.03-20.07,34.87l-11.98,9.22c-24.18,17.7-40.56,26.55-49.12,26.55-6.25,0-11.98-3.53-17.18-10.59-5.09-7.05-7.64-14.58-7.64-22.56,0-17.7,3.3-32.86,9.89-45.47,25.45-20.25,45.65-41.42,60.57-63.52,7.06-10.41,12.44-20.22,16.14-29.42,3.7-9.2,5.55-17.15,5.55-23.86s-2.84-12.44-8.5-17.18c-2.43-1.97-5.06-3.5-7.9-4.6-2.84-1.1-5.96-1.65-9.37-1.65s-8.3,1.62-14.67,4.86c-20.48,10.3-42.29,29.85-65.43,58.66-33.89,42.07-52,80.73-54.38,115.99l-37.37,29.11-27.77,22.74c10.87-26.03,16.32-45.7,16.32-59.01,0-5.78-2.49-11.45-7.46-17.01-4.98-5.55-9.95-8.33-14.93-8.33-9.61,0-18.8,3.99-27.6,11.98l-12.32,10.76c-5.44,4.86-11.63,9.08-18.57,12.67l-37.66,19.96c-8.22,4.17-14.47,6.25-18.74,6.25-6.13,0-9.2-1.91-9.2-5.73s2.72-8.33,8.16-13.54c5.44-5.21,11.68-10.3,18.74-15.28,7.06-4.97,14.49-9.54,22.3-13.71,7.81-4.17,16.08-7.99,24.82-11.45,8.73-3.47,16.72-6.48,23.95-9.03,7.23-2.54,11.8-5.18,13.71-7.9,1.91-2.72,2.86-6.62,2.86-11.71,0-7.4-3.76-11.11-11.28-11.11-22.8,0-50.62,6.07-83.48,18.22-34.14,12.5-60.52,27.19-79.14,44.08-7.82,7.09-13.17,15.23-16.05,24.4-2.23,1.6-4.46,3.19-6.72,4.76-5.84,4.05-11.57,7.64-17.18,10.76-5.61,3.12-11.05,5.62-16.32,7.46-5.27,1.85-9.84,2.78-13.71,2.78s-8.59-1.97-14.15-5.9c-5.9-4.17-8.85-8.21-8.85-12.15,3.59-3.24,8.39-8.5,14.41-15.79,3.12-3.82,6.39-8.07,9.81-12.76,3.41-4.69,6.54-9.49,9.37-14.41,2.83-4.92,5.15-9.83,6.94-14.75,1.79-4.92,2.69-9.29,2.69-13.1s-.17-7.17-.52-10.07c-1.16-9.49-10.18-14.23-27.08-14.23-11.8,0-24.59,5.15-38.36,15.45-13.77,10.3-25.11,23.02-34.02,38.18-9.72,16.78-14.58,33.33-14.58,49.64,0,17.7,7.46,33.79,22.39,48.25,6.71,6.48,14.38,11.66,23,15.53,8.62,3.87,16.95,5.81,24.99,5.81s16.23-1.36,24.56-4.08c8.33-2.72,16.89-6.36,25.69-10.93,8.79-4.57,17.61-9.89,26.47-15.97,2.48-1.7,4.88-3.49,7.31-5.24,1.93,3.23,4.19,6.34,6.77,9.32,4.98,5.67,10.93,10.24,17.88,13.71,6.94,3.47,14.58,5.21,22.91,5.21s18.8-2.83,31.41-8.5c25.22-11.22,49-26.67,71.33-46.34-4.86,16.55-10.65,31.94-17.36,46.17l-17.01,12.32c-6.83,4.86-18.34,13.71-34.54,26.55-6.13,5.09-11.92,10.35-17.35,15.79-5.44,5.44-10.3,10.94-14.58,16.49s-7.69,11.08-10.24,16.57c-2.55,5.49-3.82,10.61-3.82,15.36,0,5.09,2.26,9.54,6.77,13.36,4.97,4.4,11.39,6.6,19.26,6.6,17.47,0,36.45-8.1,56.93-24.3,14.12-11.11,28.81-28.99,44.08-53.63,3.7-3.36,8.73-7.58,15.1-12.67l91.86-69.64c3.09,10.63,7.55,19.97,13.43,27.99,11.92,16.2,27.19,24.3,45.82,24.3,25.14,0,53.62-12.45,85.41-37.28,2.91,8.71,7.9,16.05,15.02,22.01,5.55,4.74,12.03,8.3,19.44,10.67,7.4,2.37,16.02,3.56,25.86,3.56s21.87-3.53,36.1-10.59c23.26-11.57,45.3-28.06,66.13-49.47.93,15.51,5.15,27.89,12.67,37.14,7.98,9.95,19.03,14.93,33.15,14.93,11.8,0,26.84-5.32,45.13-15.97,8.1-4.63,16.14-9.75,24.12-15.36,7.98-5.61,15.27-11.11,21.87-16.49,6.6-5.38,12.29-10.24,17.1-14.58,4.8-4.34,9-8.53,12.58-12.58,3.59-4.05,7.29-9.72,11.11-17.01,1.73-3.24,3.09-6.34,4.08-9.29.98-2.95,1.48-5.78,1.48-8.5s-.52-4.97-1.56-6.77Z"/>
</svg>